<?xml version="1.0" encoding="UTF-8" standalone="no"?>
<svg
   xmlns:dc="http://purl.org/dc/elements/1.1/"
   xmlns:cc="http://creativecommons.org/ns#"
   xmlns:rdf="http://www.w3.org/1999/02/22-rdf-syntax-ns#"
   xmlns:svg="http://www.w3.org/2000/svg"
   xmlns="http://www.w3.org/2000/svg"
   xmlns:xlink="http://www.w3.org/1999/xlink"
   xmlns:sodipodi="http://sodipodi.sourceforge.net/DTD/sodipodi-0.dtd"
   xmlns:inkscape="http://www.inkscape.org/namespaces/inkscape"
   width="1024"
   height="1024"
   viewBox="0 0 1024 1024"
   version="1.1"
   xml:space="preserve"
   style="clip-rule:evenodd;fill-rule:evenodd;stroke-linejoin:round;stroke-miterlimit:1.41420996"
   id="svg49"
   sodipodi:docname="b290.svg"
   inkscape:version="1.1-dev (05168dc, 2020-06-16)"
   inkscape:export-filename="./b283.png"
   inkscape:export-xdpi="96"
   inkscape:export-ydpi="96"><metadata
   id="metadata55"><rdf:RDF><cc:Work
       rdf:about=""><dc:format>image/svg+xml</dc:format><dc:type
         rdf:resource="http://purl.org/dc/dcmitype/StillImage" /></cc:Work></rdf:RDF></metadata><defs
   id="defs53"><linearGradient
   inkscape:collect="always"
   id="linearGradient822"><stop
     style="stop-color:#e70003;stop-opacity:1;"
     offset="0"
     id="stop818" /><stop
     style="stop-color:#e70003;stop-opacity:0;"
     offset="1"
     id="stop820" /></linearGradient>
        
    
            
            
        
                
                
                
                
                
                
                
                
                
                
            
                    
                
                    
                
                    
                
                    
                
                    
                
                    
                
                    
                
                    
                
                    
                
                    
                <linearGradient
   inkscape:collect="always"
   xlink:href="#linearGradient822"
   id="linearGradient824"
   x1="36.618417"
   y1="766.18603"
   x2="979.33847"
   y2="766.18603"
   gradientUnits="userSpaceOnUse" /></defs><sodipodi:namedview
   pagecolor="#ffffff"
   bordercolor="#666666"
   borderopacity="1"
   objecttolerance="10"
   gridtolerance="10"
   guidetolerance="10"
   inkscape:pageopacity="0"
   inkscape:pageshadow="2"
   inkscape:window-width="1920"
   inkscape:window-height="1057"
   id="namedview51"
   showgrid="false"
   fit-margin-top="0"
   fit-margin-left="0"
   fit-margin-right="0"
   fit-margin-bottom="0"
   inkscape:zoom="0.1767767"
   inkscape:cx="-1196.2352"
   inkscape:cy="404.75646"
   inkscape:window-x="1912"
   inkscape:window-y="-8"
   inkscape:window-maximized="1"
   inkscape:current-layer="svg49" />
    
<rect
   y="0"
   x="0"
   height="1024"
   width="1024"
   id="rect831"
   style="fill:#13b6fb;stroke-width:39.215;stroke-linecap:round;paint-order:stroke fill markers;fill-opacity:1" /><g
   id="g825"
   transform="translate(0,-87.87824)"><path
     d="m 428.8043,555.23562 c 3.13587,-55.94164 30.5298,-105.22703 71.85724,-140.16467 40.529,-34.31637 95.08024,-55.29075 154.60135,-55.29075 59.46197,0 114.01321,20.97438 154.57152,55.29075 41.29812,34.93764 68.69207,84.22303 71.8575,140.10548 3.13587,57.47994 -19.96855,110.87739 -60.49755,150.45955 -41.32744,40.26256 -100.10904,65.52655 -165.93147,65.52655 -65.82241,0 -124.72233,-25.26399 -166.02045,-65.52655 -40.55832,-39.58216 -63.60359,-92.97961 -60.43814,-150.40036 z"
     style="fill:#13b6fb;fill-opacity:1;fill-rule:nonzero;stroke-width:29.58309174"
     id="path820"
     inkscape:connector-curvature="0" /><path
     inkscape:connector-curvature="0"
     id="path4"
     style="fill:#ffffff;fill-opacity:1;fill-rule:nonzero;stroke-width:16.63903427"
     d="m 527.88336,559.71426 c 1.76377,-31.46442 17.17151,-59.18503 40.41616,-78.83573 22.79557,-19.30127 53.47796,-31.09833 86.95566,-31.09833 33.44443,0 64.12682,11.79706 86.93888,31.09833 23.22816,19.6507 38.63591,47.37131 40.41631,78.80244 1.76377,32.32964 -11.23133,62.36308 -34.0269,84.6261 -23.24465,22.64571 -56.30641,36.85546 -93.32829,36.85546 -37.02187,0 -70.15018,-14.20975 -93.37834,-36.85546 -22.81206,-22.26302 -35.77389,-52.29646 -33.99348,-84.59281 z" /><path
     inkscape:connector-curvature="0"
     id="path8"
     style="fill:#ffffff;fill-opacity:1;fill-rule:nonzero;stroke-width:16.63903427"
     d="m 325.05341,623.29198 c 0.21629,12.31288 4.14313,36.23981 10.0334,54.92543 12.37935,39.55097 33.37788,76.14019 62.59598,108.38663 29.9836,33.14495 66.90565,59.76739 109.55143,78.66933 44.82566,19.85035 93.39499,29.96688 143.84455,29.88369 50.36638,-0.0666 98.93571,-10.38275 143.76121,-30.38287 42.64594,-19.08496 79.53471,-45.82388 109.46824,-78.98547 29.20162,-32.37954 50.16672,-69.03533 62.5795,-108.58629 6.23966,-19.98348 10.18314,-40.26644 11.76374,-60.61598 1.54748,-20.05003 0.8986,-40.13334 -1.94678,-60.2 -5.55736,-39.10172 -19.08487,-75.79078 -39.91702,-109.23522 -19.0516,-30.73229 -43.61094,-57.6376 -72.81241,-80.28332 l 0.066,-0.0499 L 569.3479,140.54386 c -0.26636,-0.19966 -0.48265,-0.41597 -0.7655,-0.599 -19.33459,-14.84201 -51.84714,-14.7921 -73.11188,0.0832 -21.49767,15.04168 -23.96023,39.91703 -4.82529,55.60763 l -0.0839,0.0832 122.91257,99.95063 -374.62797,0.39934 c -0.18302,0 -0.36604,0 -0.49914,0 -30.96523,0.0333 -60.73254,20.34954 -66.6228,46.02356 -6.0565,26.15654 14.97516,47.85384 47.17174,47.97032 l -0.0495,0.11646 189.88462,-0.36605 L 69.893531,649.8978 c -0.432615,0.31615 -0.898506,0.64892 -1.297846,0.96507 -31.963596,24.476 -42.296437,65.17506 -22.163198,90.93229 20.432737,26.18982 63.877263,26.23974 96.173633,0.14974 L 327.5323,590.59628 c 0,0 -2.69549,20.43274 -2.47919,32.6957 z m 475.19434,68.41968 c -38.10334,38.81886 -91.4482,60.83229 -149.16898,60.94877 -57.80396,0.0998 -111.14882,-21.71393 -149.25216,-60.46624 -18.61916,-18.88529 -32.29642,-40.61586 -40.73243,-63.76076 -8.26964,-22.74555 -11.4809,-46.88878 -9.3511,-71.24831 2.01333,-23.81044 9.10153,-46.52272 20.41605,-67.07192 11.11487,-20.19978 26.42279,-38.4528 45.32479,-53.89382 37.03852,-30.18319 84.19348,-46.52272 133.51166,-46.58927 49.36795,-0.0666 96.48978,16.12322 133.56158,46.20658 18.86858,15.37445 34.15986,33.56091 45.27472,53.72742 11.36459,20.53255 18.40287,43.16164 20.4994,67.03865 2.09652,24.32626 -1.11489,48.4362 -9.38438,71.19839 -8.45265,23.21145 -22.08014,44.94201 -40.69915,63.91051 z" /></g><g
   id="g839"><ellipse
     style="fill:#13b6fb;fill-opacity:1;stroke:none;stroke-width:65;stroke-linecap:round;stroke-miterlimit:1.41421;stroke-dasharray:none;stroke-opacity:1;paint-order:stroke fill markers"
     id="path833"
     cx="577.70624"
     cy="707.81384"
     rx="34.648232"
     ry="45.961941" /><ellipse
     style="fill:#13b6fb;fill-opacity:1;stroke:none;stroke-width:65;stroke-linecap:round;stroke-miterlimit:1.41421;stroke-dasharray:none;stroke-opacity:1;paint-order:stroke fill markers"
     id="path835"
     cx="872.56976"
     cy="746.70471"
     rx="106.06602"
     ry="134.35028" /></g><text
   xml:space="preserve"
   style="font-style:normal;font-weight:normal;font-size:502.653px;line-height:1.25;font-family:sans-serif;letter-spacing:0px;word-spacing:0px;fill:#ffffff;fill-opacity:1;stroke:#13b6fb;stroke-width:65;stroke-miterlimit:1.41420996;stroke-dasharray:none;stroke-opacity:1;paint-order:stroke fill markers"
   x="20.910507"
   y="940.32294"
   id="text816"><tspan
     sodipodi:role="line"
     id="tspan814"
     x="20.910507"
     y="940.32294"
     style="font-style:normal;font-variant:normal;font-weight:bold;font-stretch:normal;font-family:Helvetica;-inkscape-font-specification:'Helvetica Bold';fill:#ffffff;fill-opacity:1;stroke:#13b6fb;stroke-width:65;stroke-miterlimit:1.41420996;stroke-dasharray:none;stroke-opacity:1;paint-order:stroke fill markers">2.90</tspan></text>


</svg>
